_________________________  Visit us at _________________________
  
http://p2pdl.com  ____________________________  http://p2pdl.com


Jack Reacher 2012 BRRip 720p x264 AAC - PRiSTiNE [P2PDL]

Genre: Action | Crime | Thriller
Plot: A homicide investigator digs deeper into a 
case involving a trained military sniper who 
shot five random victims.
Director: Christopher McQuarrie
Stars: Tom Cruise, Rosamund Pike, Richard Jenkins
Rated: Rated PG-13 for violence, language and some drug material

Info: 
http://www.imdb.com/title/tt0790724/

General
Complete name                  : Jack Reacher 2012 BRRip 720p x264 AAC - PRiSTiNE.mp4
Format                         : MPEG-4
Format profile                 : Base Media
File size                      : 729 MiB
Duration                       : 2h 10mn
Overall bit rate mode          : Variable
Overall bit rate               : 782 Kbps

Video
Format                         : AVC
Format/Info                    : Advanced Video Codec
Format profile                 : High 10@L4.1
Bit rate                       : 699 Kbps
Width                          : 1 280 pixels
Height                         : 544 pixels
Display aspect ratio           : 2.35:1
Frame rate mode                : Constant
Frame rate                     : 23.976 fps
Bit depth                      : 10 bits
Stream size                    : 651 MiB (89%)
Writing library                : x264 core 130 r2273 b3065e6

Audio
Format                         : AAC
Bit rate mode                  : Variable
Bit rate                       : 79.9 Kbps
Channel(s)                     : 2 channels
Channel positions              : Front: L R
Sampling rate                  : 48.0 KHz / 24.0 KHz
Stream size                    : 74.5 MiB (10%)
Language                       : English

Subtitle                       : Yes (English)
Source                         : 720p.BluRay.X264-AMIABLE (Thanks)

Screens:
 
http://www.ultraimg.com/images/1ysW3.jpg 
http://www.ultraimg.com/images/TbnjV.jpg 
http://www.ultraimg.com/images/hXPZu.jpg 
http://www.ultraimg.com/images/CzvP8.jpg 
http://www.ultraimg.com/images/hHWML.jpg

----------------------------------------------------------------------------------------------------


Encoded using revolutionary 10bit encoding, which enables us to provide you more crispier 
and sharper images at small sizes, just make sure you follow our instructions without a fault.
Recommend to you to use latest version of VLC player. Install K-Lite Codec Pack or shark007 codecs
in case of any kind of problem in playback (For non-VLC Media Player users). Alternatively, install
Core AVC codecs, the fastest decoder that there is coupled with Community Center Codec Pack and play
on Windows Media Player Classic. Check sample to be sure.
Enjoy!

Encoder Notes:Looking For Early Access To Anything You Can Provide DVDScr, R5, DVDR, BluRay, Direct
Audio, Music Releases and Seedboxes. We require dedicated servers, so as to do more 
and fast releases of movies.
If You Got anything to offer please contact us at "prg@hush.com".

Face book Fan Page:   
http://www.fb.me/p2pdl